# xmcd
# 
# Track frame offsets:
#     150
#     12580
#     25270
#     43670
#     64647
#     80082
#     98300
#     115300
#     129742
#     143895
# 
# Disc length: 2159
# 
# Revision: 5
# Processed by: cddbd v1.5.2PL0 Copyright (c) Steve Scherf et al.
# Submitted via: fre:ac v1.0.27
# 
DISCID=83086d0a
DTITLE=Chris Smither - Small Revelations
DYEAR=1997
DGENRE=Blues
TTITLE0=Thanks To You
TTITLE1=Slow Surprise
TTITLE2=Hold On
TTITLE3=Cave Man
TTITLE4=Help Me Now
TTITLE5=Small Revelations
TTITLE6=Winsome Smile
TTITLE7=Dust My Broom
TTITLE8=Sportin' Life
TTITLE9=Hook, Line and Sinker
EXTD=(C) 1997 Hightone Records\nHCD 8077\n
EXTT0=
EXTT1=
EXTT2=
EXTT3=
EXTT4=
EXTT5=
EXTT6=
EXTT7=
EXTT8=
EXTT9=
PLAYORDER=
